<?xml version="1.0" standalone="no"?><!DOCTYPE svg PUBLIC "-//W3C//DTD SVG 1.1//EN" "http://www.w3.org/Graphics/SVG/1.1/DTD/svg11.dtd"><svg t="1764127468238" class="icon" viewBox="0 0 1024 1024" version="1.1" xmlns="http://www.w3.org/2000/svg" p-id="6978" xmlns:xlink="http://www.w3.org/1999/xlink" width="200" height="200"><path d="M908.798694 622.074333l-104.539656-390.798714s-6.399979-25.182917-30.718899-14.078954L534.606926 328.1343l36.699879 136.538551 46.493847 174.072427 0.415998 2.559991C620.366643 661.369203 600.715708 674.999159 600.715708 674.999159l-80.220736 37.119877 21.34293 80.636735 1.699994 4.255986c2.97599 7.263976 11.935961 25.599916 34.558886 38.814872L874.623807 1017.99803s29.022904 17.499942 22.174927-7.263976L812.323012 694.999093l79.356738-36.699879s23.899921-11.099963 17.054944-36.254881z m-321.682941 3.839987l-0.415999-2.559991L538.477913 443.299921l-28.158907-104.539656-28.573906-106.23765v-1.699995s-6.815978-25.182917-35.838882-42.653859L149.374193 6.00136S120.351289-11.498582 127.199266 13.268336L212.091987 329.830295l-79.772737 37.118877S108.416328 378.053136 115.268306 403.200053L219.803962 793.998767s6.815978 25.182917 30.718899 14.078954L569.228812 659.609209s22.174927-10.239966 17.918941-33.694889z" fill="#004F9F" p-id="6979"></path></svg>