<?xml version="1.0" standalone="no"?><!DOCTYPE svg PUBLIC "-//W3C//DTD SVG 1.1//EN" "http://www.w3.org/Graphics/SVG/1.1/DTD/svg11.dtd"><svg t="1765803403132" class="icon" viewBox="0 0 1024 1024" version="1.1" xmlns="http://www.w3.org/2000/svg" p-id="4632" xmlns:xlink="http://www.w3.org/1999/xlink" width="200" height="200"><path d="M512 512m-512 0a512 512 0 1 0 1024 0 512 512 0 1 0-1024 0Z" fill="#0B66C1" p-id="4633"></path><path d="M801.391304 756.379826v-155.158261c0-27.336348 0-54.628174-1.869913-81.964522a155.291826 155.291826 0 0 0-29.384348-83.923478c-22.349913-30.274783-53.114435-44.388174-88.553739-47.326608-44.744348-3.428174-82.498783 10.729739-109.078261 50.265043-1.335652 1.958957-3.250087 3.917913-6.054956 7.791304V396.777739H453.231304v359.602087h113.708522V552.425739c0-19.500522 5.609739-36.59687 18.654609-50.754782 16.294957-18.031304 36.819478-22.928696 59.213913-17.541566 21.860174 5.342609 33.52487 21.459478 38.644869 43.408696 2.359652 10.729739 3.739826 22.438957 3.739826 33.658435 0.445217 61.974261 0 123.948522 0.445218 185.922782 0 3.428174 0.489739 6.322087 0.489739 9.750261 37.754435-0.489739 75.063652-0.489739 113.263304-0.489739z m-526.692174-0.445217h113.263305V396.243478H274.69913v359.602087zM331.108174 222.608696c-1.869913 0-5.609739 0-9.349565 0.489739-22.839652 3.428174-40.514783 14.157913-49.419131 37.086608-8.815304 21.949217-6.500174 43.898435 7.479652 62.95374 17.719652 24.353391 55.919304 31.165217 84.813913 15.582608a55.652174 55.652174 0 0 0 28.449392-35.127652C406.127304 261.164522 377.677913 223.098435 331.108174 222.608696z" fill="#FFFFFF" p-id="4634"></path></svg>