<?xml version="1.0" standalone="no"?><!DOCTYPE svg PUBLIC "-//W3C//DTD SVG 1.1//EN" "http://www.w3.org/Graphics/SVG/1.1/DTD/svg11.dtd"><svg t="1764558206055" class="icon" viewBox="0 0 1031 1024" version="1.1" xmlns="http://www.w3.org/2000/svg" p-id="5665" xmlns:xlink="http://www.w3.org/1999/xlink" width="201.3671875" height="200"><path d="M738.742857 789.942857H277.942857c-21.942857 0-36.571429 14.628571-36.571428 36.571429s14.628571 36.571429 36.571428 36.571428h468.114286c21.942857 0 36.571429-14.628571 36.571428-36.571428s-21.942857-36.571429-43.885714-36.571429zM621.714286 438.857143c36.571429-29.257143 58.514286-73.142857 58.514285-124.342857C680.228571 219.428571 599.771429 146.285714 512 146.285714S336.457143 219.428571 336.457143 314.514286c0 51.2 21.942857 95.085714 58.514286 124.342857-95.085714 43.885714-153.6 131.657143-153.6 241.371428 0 21.942857 14.628571 36.571429 36.571428 36.571429h468.114286c21.942857 0 36.571429-14.628571 36.571428-36.571429-7.314286-109.714286-65.828571-197.485714-160.914285-241.371428zM512 219.428571c51.2 0 95.085714 43.885714 95.085714 95.085715S563.2 409.6 512 409.6c-58.514286 0-102.4-43.885714-102.4-95.085714S453.485714 219.428571 512 219.428571zM314.514286 643.657143C336.457143 555.885714 416.914286 482.742857 512 482.742857s175.542857 65.828571 190.171429 160.914286H314.514286z" fill="#2c2c2c" p-id="5666"></path><path d="M1002.057143 73.142857c-14.628571-21.942857-29.257143-43.885714-58.514286-58.514286-21.942857-7.314286-51.2-14.628571-109.714286-14.628571H190.171429C131.657143 0 102.4 7.314286 73.142857 21.942857 51.2 29.257143 29.257143 51.2 21.942857 73.142857c-14.628571 29.257143-21.942857 58.514286-21.942857 117.028572v650.971428c0 58.514286 7.314286 87.771429 21.942857 109.714286s29.257143 43.885714 58.514286 58.514286c21.942857 7.314286 51.2 14.628571 109.714286 14.628571h650.971428c58.514286 0 87.771429-7.314286 109.714286-21.942857s43.885714-29.257143 58.514286-58.514286c14.628571-29.257143 21.942857-51.2 21.942857-109.714286V190.171429c-7.314286-58.514286-14.628571-87.771429-29.257143-117.028572zM950.857143 833.828571c0 51.2-7.314286 65.828571-7.314286 80.457143-7.314286 14.628571-14.628571 21.942857-21.942857 21.942857-14.628571 7.314286-21.942857 7.314286-80.457143 7.314286H190.171429c-51.2 0-65.828571-7.314286-80.457143-7.314286-14.628571-7.314286-21.942857-14.628571-21.942857-21.942857-7.314286-14.628571-14.628571-21.942857-14.628572-80.457143V190.171429c0-51.2 7.314286-65.828571 7.314286-80.457143 7.314286-14.628571 14.628571-21.942857 21.942857-21.942857 21.942857-7.314286 29.257143-14.628571 87.771429-14.628572h650.971428c51.2 0 65.828571 7.314286 80.457143 7.314286 14.628571 7.314286 21.942857 14.628571 21.942857 21.942857 0 21.942857 7.314286 29.257143 7.314286 87.771429v643.657142z" fill="#2c2c2c" p-id="5667"></path></svg>